<svg xmlns="http://www.w3.org/2000/svg" viewBox="0 0 1920 1080">
    <path fill="#ffffff" fill-opacity=".966" d="M945.695 318.676v144.121l-11.938 11.847L837 571.506l-57 57.024 34.645 34.63 41.6-75.38.225.13a146.433 146.433 0 004.355 2.864c.463.39.925.651 1.393.912.45.39.897.65 1.35.91.9.522 1.8 1.042 2.707 1.693.505.26 1.015.521 1.52.782l1.34.78a144.738 144.738 0 002.875 1.563 146.885 146.885 0 002.93 1.562c.562.26 1.127.521 1.695.781l1.337.651 1.653.782c.907.52 1.82.91 2.735 1.301.547.26 1.097.391 1.647.651.47.26.938.39 1.41.651a149.558 149.558 0 002.906 1.172 153.54 153.54 0 004.937 1.823 147.613 147.613 0 007.818 2.343 90.047 90.047 0 003.112.911l1.175.26c.67.261 1.337.391 2.007.522l1.048.26c.7.13 1.405.26 2.11.52h.57a148.447 148.447 0 0010.75 1.954h.385a144.765 144.765 0 003.773.39c.192.13.387.13.58.13a147.688 147.688 0 0012.142.782h4.875a158.93 158.93 0 007.07-.26c.325 0 .648-.131.97-.131a145.225 145.225 0 003.962-.26 147.688 147.688 0 007.976-.912l.755-.13a149.475 149.475 0 008.21-1.562c.975-.26 1.95-.39 2.925-.651.275 0 .555-.13.832-.13a148.175 148.175 0 003.31-.912l.625-.13a149.575 149.575 0 007.645-2.343l1.025-.26a144.363 144.363 0 006.53-2.344 148.295 148.295 0 003.93-1.693l.882-.26c2.475-1.172 4.925-2.213 7.35-3.385l.665-.39c.98-.521 1.96-1.042 2.933-1.563.335-.13.67-.39 1.005-.52a147.523 147.523 0 007.287-4.167c.793-.52 1.58-1.041 2.363-1.562l.942-.52a661.1 661.1 0 003.385-2.344h.025c1.123-.781 2.235-1.562 3.343-2.474.295-.13.588-.39.882-.65.783-.521 1.565-1.172 2.338-1.693.405-.39.807-.651 1.208-1.042a148.202 148.202 0 005.17-4.296l1.275-1.172c.687-.52 1.37-1.171 2.05-1.822.317-.26.635-.521.95-.912 1.02-.911 2.027-1.953 3.025-2.864 29.717-29.814 44.162-69 43.34-107.928L1140 441.836l-59.025-25.647a147.035 147.035 0 00-7.355-16.925 147.815 147.815 0 00-27.172-37.234h-.01a147.982 147.982 0 00-55.368-35.022 147.815 147.815 0 00-45.37-8.332z"/>
    <path fill="#ffffff" d="M836.625 742.056q-.857 9.113-6.725 14.19-5.868 5.078-15.605 5.078-6.805 0-12.008-3.255-5.162-3.255-7.977-9.113-2.815-5.99-2.933-13.8v-5.338q0-8.072 2.855-14.191 2.855-6.119 8.175-9.504 5.355-3.255 12.358-3.255 9.425 0 15.175 5.078 5.75 5.077 6.688 14.45h-9.855q-.706-6.118-3.6-8.852-2.855-2.734-8.408-2.734-6.453 0-9.935 4.817-3.44 4.687-3.52 13.8v4.947q0 9.244 3.285 14.06 3.325 4.948 9.7 4.948 5.827 0 8.76-2.604 2.935-2.734 3.718-8.722zm17.25-19.269q4.652-5.337 11.773-5.337 13.532 0 13.725 15.492v27.6h-9.5v-27.34q0-4.296-1.918-6.118-1.877-1.823-5.555-1.823-5.71 0-8.525 5.077v30.205h-9.505v-60.018h9.505zm60.347 37.756q-.625-1.172-1.095-3.906-4.537 4.687-11.107 4.687-6.375 0-10.405-3.646-4.027-3.645-4.027-8.983 0-6.77 5.005-10.415 5.047-3.645 14.392-3.645h5.828V731.9q0-3.255-1.838-5.208-1.837-1.953-5.592-1.953-3.245 0-5.32 1.563-2.073 1.562-2.073 4.166h-9.502q0-3.516 2.307-6.51 2.308-3.124 6.257-4.817 3.99-1.692 8.878-1.692 7.43 0 11.85 3.775 4.42 3.645 4.538 10.415v19.138q0 5.729 1.602 9.114v.65zm-10.442-6.9q2.815 0 5.28-1.302 2.5-1.432 3.752-3.646v-8.072h-5.122q-5.28 0-7.94 1.953-2.658 1.823-2.658 5.078 0 2.734 1.8 4.426 1.835 1.563 4.888 1.563zm26.713-14.712q0-6.119 2.462-11.066 2.465-5.078 6.925-7.681 4.458-2.734 10.245-2.734 8.565 0 13.885 5.468 5.357 5.598 5.787 14.711l.038 2.213q0 6.25-2.425 11.197-2.385 4.947-6.883 7.55-4.457 2.735-10.325 2.735-8.955 0-14.352-5.989-5.358-5.989-5.358-15.883zm9.502.911q0 6.51 2.7 10.155 2.697 3.776 7.507 3.776t7.47-3.776q2.7-3.775 2.7-11.066 0-6.38-2.777-10.155-2.737-3.645-7.47-3.645-4.655 0-7.392 3.645-2.738 3.645-2.738 11.066zm46.892-21.611l.276 4.426q4.457-5.207 12.2-5.207 8.49 0 11.617 6.51 4.615-6.51 12.985-6.51 7 0 10.402 3.905 3.443 3.776 3.52 11.327v27.86h-9.502v-27.47q0-4.035-1.76-5.988-1.76-1.823-5.828-1.823-3.247 0-5.32 1.692-2.032 1.693-2.855 4.557l.04 29.033h-9.505v-27.861q-.195-7.421-7.625-7.421-5.71 0-8.097 4.557v30.725h-9.503V718.23zm86.123 42.312q-.625-1.172-1.097-3.906-4.536 4.687-11.106 4.687-6.375 0-10.405-3.646-4.027-3.645-4.027-8.983 0-6.77 5.005-10.415 5.045-3.645 14.393-3.645h5.827V731.9q0-3.255-1.837-5.208-1.838-1.953-5.593-1.953-3.248 0-5.32 1.563-2.072 1.562-2.072 4.166h-9.503q0-3.516 2.308-6.51 2.307-3.124 6.257-4.817 3.987-1.692 8.877-1.692 7.43 0 11.85 3.775 4.42 3.645 4.538 10.415v19.138q0 5.729 1.602 9.114v.65zm-10.443-6.9q2.815 0 5.278-1.302 2.505-1.432 3.755-3.646v-8.072h-5.122q-5.28 0-7.94 1.953-2.66 1.823-2.66 5.078 0 2.734 1.8 4.426 1.837 1.563 4.89 1.563zm26.71-14.712q0-6.119 2.465-11.066 2.465-5.078 6.923-7.681 4.457-2.734 10.247-2.734 8.565 0 13.883 5.468 5.36 5.598 5.79 14.711l.037 2.213q0 6.25-2.425 11.197-2.385 4.947-6.883 7.55-4.457 2.735-10.325 2.735-8.955 0-14.352-5.989-5.36-5.989-5.36-15.883zm9.505.911q0 6.51 2.7 10.155 2.698 3.776 7.508 3.776 4.81 0 7.47-3.776 2.7-3.775 2.7-11.066 0-6.38-2.777-10.155-2.738-3.645-7.47-3.645-4.655 0-7.393 3.645-2.737 3.645-2.737 11.066z" aria-label="Chaomao" font-family="Roboto" font-size="100.953" font-weight="500" letter-spacing="0" word-spacing="0"/>
</svg>
